<mxfile host="app.diagrams.net" agent="Mozilla/5.0 (Windows NT 10.0; Win64; x64) AppleWebKit/537.36 (KHTML, like Gecko) Chrome/141.0.0.0 Safari/537.36" version="28.2.5">
  <diagram name="Page-1" id="1JZGMNmJE-IETViBg10o">
    <mxGraphModel dx="872" dy="473" grid="1" gridSize="10" guides="1" tooltips="1" connect="1" arrows="1" fold="1" page="1" pageScale="1" pageWidth="827" pageHeight="1169" math="0" shadow="0">
      <root>
        <mxCell id="0" />
        <mxCell id="1" parent="0" />
        <mxCell id="avvIacJ8UEr51rkEN6Sf-17" value="" style="edgeStyle=orthogonalEdgeStyle;rounded=0;orthogonalLoop=1;jettySize=auto;html=1;" edge="1" parent="1" source="avvIacJ8UEr51rkEN6Sf-2" target="avvIacJ8UEr51rkEN6Sf-3">
          <mxGeometry relative="1" as="geometry" />
        </mxCell>
        <mxCell id="avvIacJ8UEr51rkEN6Sf-2" value="&lt;div&gt;&lt;font face=&quot;Times New Roman&quot;&gt;Initialize Swarm&amp;nbsp;&lt;span style=&quot;background-color: transparent; color: light-dark(rgb(0, 0, 0), rgb(255, 255, 255));&quot;&gt;(Positions &amp;amp; Velocities)&amp;nbsp;&lt;/span&gt;&lt;/font&gt;&lt;/div&gt;" style="rounded=1;whiteSpace=wrap;html=1;fillColor=#e1d5e7;strokeColor=#9673a6;" vertex="1" parent="1">
          <mxGeometry x="280" y="115" width="120" height="60" as="geometry" />
        </mxCell>
        <mxCell id="avvIacJ8UEr51rkEN6Sf-16" value="" style="edgeStyle=orthogonalEdgeStyle;rounded=0;orthogonalLoop=1;jettySize=auto;html=1;" edge="1" parent="1" source="avvIacJ8UEr51rkEN6Sf-3" target="avvIacJ8UEr51rkEN6Sf-5">
          <mxGeometry relative="1" as="geometry" />
        </mxCell>
        <mxCell id="avvIacJ8UEr51rkEN6Sf-3" value="&lt;font face=&quot;Times New Roman&quot;&gt;Evaluate Fitness&lt;/font&gt;" style="rounded=1;whiteSpace=wrap;html=1;fillColor=#e1d5e7;strokeColor=#9673a6;" vertex="1" parent="1">
          <mxGeometry x="440" y="115" width="120" height="60" as="geometry" />
        </mxCell>
        <mxCell id="avvIacJ8UEr51rkEN6Sf-23" value="" style="edgeStyle=orthogonalEdgeStyle;rounded=0;orthogonalLoop=1;jettySize=auto;html=1;" edge="1" parent="1" source="avvIacJ8UEr51rkEN6Sf-4" target="avvIacJ8UEr51rkEN6Sf-2">
          <mxGeometry relative="1" as="geometry" />
        </mxCell>
        <mxCell id="avvIacJ8UEr51rkEN6Sf-4" value="&lt;font face=&quot;Times New Roman&quot;&gt;Start&lt;/font&gt;" style="ellipse;whiteSpace=wrap;html=1;aspect=fixed;fillColor=#d5e8d4;strokeColor=#82b366;" vertex="1" parent="1">
          <mxGeometry x="180" y="115" width="60" height="60" as="geometry" />
        </mxCell>
        <mxCell id="avvIacJ8UEr51rkEN6Sf-15" value="" style="edgeStyle=orthogonalEdgeStyle;rounded=0;orthogonalLoop=1;jettySize=auto;html=1;" edge="1" parent="1" source="avvIacJ8UEr51rkEN6Sf-5" target="avvIacJ8UEr51rkEN6Sf-8">
          <mxGeometry relative="1" as="geometry" />
        </mxCell>
        <mxCell id="avvIacJ8UEr51rkEN6Sf-5" value="&lt;div&gt;&lt;font face=&quot;Times New Roman&quot;&gt;Update pbest for each&amp;nbsp;&lt;span style=&quot;background-color: transparent; color: light-dark(rgb(0, 0, 0), rgb(255, 255, 255));&quot;&gt;particle &amp;amp; gbest of all&lt;/span&gt;&lt;/font&gt;&lt;/div&gt;" style="rounded=1;whiteSpace=wrap;html=1;fillColor=#e1d5e7;strokeColor=#9673a6;" vertex="1" parent="1">
          <mxGeometry x="440" y="220" width="120" height="60" as="geometry" />
        </mxCell>
        <mxCell id="avvIacJ8UEr51rkEN6Sf-24" style="edgeStyle=orthogonalEdgeStyle;rounded=0;orthogonalLoop=1;jettySize=auto;html=1;entryX=1;entryY=0.5;entryDx=0;entryDy=0;" edge="1" parent="1" source="avvIacJ8UEr51rkEN6Sf-7" target="avvIacJ8UEr51rkEN6Sf-3">
          <mxGeometry relative="1" as="geometry" />
        </mxCell>
        <mxCell id="avvIacJ8UEr51rkEN6Sf-25" value="&lt;font face=&quot;Times New Roman&quot;&gt;NO&lt;/font&gt;" style="edgeLabel;html=1;align=center;verticalAlign=middle;resizable=0;points=[];" vertex="1" connectable="0" parent="avvIacJ8UEr51rkEN6Sf-24">
          <mxGeometry x="-0.7255" y="5" relative="1" as="geometry">
            <mxPoint y="5" as="offset" />
          </mxGeometry>
        </mxCell>
        <mxCell id="avvIacJ8UEr51rkEN6Sf-27" value="" style="edgeStyle=orthogonalEdgeStyle;rounded=0;orthogonalLoop=1;jettySize=auto;html=1;" edge="1" parent="1" source="avvIacJ8UEr51rkEN6Sf-7" target="avvIacJ8UEr51rkEN6Sf-9">
          <mxGeometry relative="1" as="geometry" />
        </mxCell>
        <mxCell id="avvIacJ8UEr51rkEN6Sf-28" value="&lt;font face=&quot;Times New Roman&quot;&gt;YES&lt;/font&gt;" style="edgeLabel;html=1;align=center;verticalAlign=middle;resizable=0;points=[];" vertex="1" connectable="0" parent="avvIacJ8UEr51rkEN6Sf-27">
          <mxGeometry x="-0.2333" relative="1" as="geometry">
            <mxPoint as="offset" />
          </mxGeometry>
        </mxCell>
        <mxCell id="avvIacJ8UEr51rkEN6Sf-7" value="&lt;span style=&quot;font-family: &amp;quot;Times New Roman&amp;quot;;&quot;&gt;Check terminal state&lt;/span&gt;" style="rhombus;whiteSpace=wrap;html=1;fillColor=#fff2cc;strokeColor=#d6b656;" vertex="1" parent="1">
          <mxGeometry x="290" y="320" width="100" height="100" as="geometry" />
        </mxCell>
        <mxCell id="avvIacJ8UEr51rkEN6Sf-14" value="" style="edgeStyle=orthogonalEdgeStyle;rounded=0;orthogonalLoop=1;jettySize=auto;html=1;" edge="1" parent="1" source="avvIacJ8UEr51rkEN6Sf-8" target="avvIacJ8UEr51rkEN6Sf-7">
          <mxGeometry relative="1" as="geometry" />
        </mxCell>
        <mxCell id="avvIacJ8UEr51rkEN6Sf-8" value="&lt;div&gt;&lt;span style=&quot;background-color: transparent;&quot;&gt;&lt;font face=&quot;Times New Roman&quot;&gt;Update Velocity and&amp;nbsp;&lt;/font&gt;&lt;/span&gt;&lt;span style=&quot;background-color: transparent;&quot;&gt;&lt;font face=&quot;Times New Roman&quot;&gt;Position&lt;/font&gt;&lt;/span&gt;&lt;/div&gt;" style="rounded=1;whiteSpace=wrap;html=1;fillColor=#e1d5e7;strokeColor=#9673a6;" vertex="1" parent="1">
          <mxGeometry x="280" y="220" width="120" height="60" as="geometry" />
        </mxCell>
        <mxCell id="avvIacJ8UEr51rkEN6Sf-9" value="&lt;font face=&quot;Times New Roman&quot;&gt;End&lt;/font&gt;" style="ellipse;whiteSpace=wrap;html=1;aspect=fixed;fillColor=#d5e8d4;strokeColor=#82b366;" vertex="1" parent="1">
          <mxGeometry x="180" y="340" width="60" height="60" as="geometry" />
        </mxCell>
      </root>
    </mxGraphModel>
  </diagram>
</mxfile>
